<?xml version="1.0" encoding="iso-8859-1"?>
<!-- Uploaded to: SVG Repo, www.svgrepo.com, Generator: SVG Repo Mixer Tools -->
<svg height="800px" width="800px" version="1.1" id="Layer_1" xmlns="http://www.w3.org/2000/svg" xmlns:xlink="http://www.w3.org/1999/xlink" 
	 viewBox="0 0 503.607 503.607" xml:space="preserve">
<g transform="translate(1 1)">
	<g>
		<path style="fill:#FFDD09;" d="M326.344,326.344v117.508h151.082c9.233,0,16.787-7.554,16.787-16.787v-83.934
			c0-9.233-7.554-16.787-16.787-16.787H326.344z"/>
		<path style="fill:#FFDD09;" d="M309.557,460.639H192.049c-9.233,0-16.787-7.554-16.787-16.787V326.344
			c0-9.233,7.554-16.787,16.787-16.787h117.508c9.233,0,16.787,7.554,16.787,16.787v117.508
			C326.344,453.085,318.79,460.639,309.557,460.639"/>
	</g>
	<path style="fill:#FD9808;" d="M309.557,309.557h-25.18c9.233,0,16.787,7.554,16.787,16.787v117.508
		c0,9.233-7.554,16.787-16.787,16.787h25.18c9.233,0,16.787-7.554,16.787-16.787V326.344
		C326.344,317.111,318.79,309.557,309.557,309.557"/>
	<path style="fill:#FFDD09;" d="M175.262,326.344H24.18c-9.233,0-16.787,7.554-16.787,16.787v83.934
		c0,9.233,7.554,16.787,16.787,16.787h151.082V326.344z"/>
	<path style="fill:#FFFFFF;" d="M32.574,427.066v-83.934c0-9.233,7.554-16.787,16.787-16.787H24.18
		c-9.233,0-16.787,7.554-16.787,16.787v83.934c0,9.233,7.554,16.787,16.787,16.787h25.18
		C40.128,443.852,32.574,436.298,32.574,427.066"/>
	<path style="fill:#FD9808;" d="M469.033,427.066v-83.934c0-9.233-7.554-16.787-16.787-16.787h25.18
		c9.233,0,16.787,7.554,16.787,16.787v83.934c0,9.233-7.554,16.787-16.787,16.787h-25.18
		C461.479,443.852,469.033,436.298,469.033,427.066"/>
	<g>
		<path style="fill:#FFDD09;" d="M250.803,259.197c-8.393,0-16.787-0.839-25.18-3.357v53.718h50.361v-53.718
			C268.43,258.357,260.036,259.197,250.803,259.197"/>
		<path style="fill:#FFDD09;" d="M359.918,150.082c0-60.433-48.682-109.115-109.115-109.115S141.689,89.649,141.689,150.082
			s48.682,109.115,109.115,109.115S359.918,210.515,359.918,150.082"/>
	</g>
	<path style="fill:#FCC309;" d="M326.344,150.082c0-41.967-33.574-75.541-75.541-75.541s-75.541,33.574-75.541,75.541
		s33.574,75.541,75.541,75.541S326.344,192.049,326.344,150.082"/>
	<path style="fill:#FD9808;" d="M198.764,204.639c13.43,12.59,31.895,20.984,52.039,20.984s38.61-8.393,52.039-20.984
		c-13.43-12.59-31.895-20.984-52.039-20.984S212.193,192.049,198.764,204.639"/>
	<path d="M309.557,469.033H192.049c-14.269,0-25.18-10.911-25.18-25.18V326.344c0-14.269,10.911-25.18,25.18-25.18h117.508
		c14.269,0,25.18,10.911,25.18,25.18v117.508C334.738,458.121,323.826,469.033,309.557,469.033z M192.049,317.951
		c-5.036,0-8.393,3.357-8.393,8.393v117.508c0,5.036,3.357,8.393,8.393,8.393h117.508c5.036,0,8.393-3.357,8.393-8.393V326.344
		c0-5.036-3.357-8.393-8.393-8.393H192.049z"/>
	<path d="M250.803,234.016c-46.164,0-83.934-37.77-83.934-83.934s37.77-83.934,83.934-83.934s83.934,37.77,83.934,83.934
		S296.967,234.016,250.803,234.016z M250.803,82.934c-36.931,0-67.148,30.216-67.148,67.148s30.216,67.148,67.148,67.148
		s67.148-30.216,67.148-67.148S287.734,82.934,250.803,82.934z"/>
	<path d="M175.262,452.246H24.18C9.911,452.246-1,441.334-1,427.066v-83.934c0-14.269,10.911-25.18,25.18-25.18h151.082
		c5.036,0,8.393,3.357,8.393,8.393v117.508C183.656,448.888,180.298,452.246,175.262,452.246z M24.18,334.738
		c-5.036,0-8.393,3.357-8.393,8.393v83.934c0,5.036,3.357,8.393,8.393,8.393h142.689V334.738H24.18z"/>
	<path d="M477.426,452.246H326.344c-5.036,0-8.393-3.357-8.393-8.393V326.344c0-5.036,3.357-8.393,8.393-8.393h151.082
		c14.269,0,25.18,10.911,25.18,25.18v83.934C502.607,441.334,491.695,452.246,477.426,452.246z M334.738,435.459h142.689
		c5.036,0,8.393-3.357,8.393-8.393v-83.934c0-5.036-3.357-8.393-8.393-8.393H334.738V435.459z"/>
	<path d="M250.803,234.016c-21.823,0-41.967-8.393-57.915-23.502c-1.679-1.679-2.518-3.357-2.518-5.875
		c0-2.518,0.839-4.197,2.518-5.875c15.948-15.108,36.092-23.502,57.915-23.502s41.967,8.393,57.915,23.502
		c1.679,1.679,2.518,3.357,2.518,5.875c0,2.518-0.839,4.197-2.518,5.875C292.77,225.623,272.626,234.016,250.803,234.016z
		 M212.193,204.639c11.751,8.393,25.18,12.59,39.449,12.59s27.698-4.197,39.449-12.59c-11.751-8.393-25.18-12.59-39.449-12.59
		C237.374,192.049,223.105,196.246,212.193,204.639z"/>
	<path d="M250.803,158.475c-2.518,0-4.197-0.839-5.875-2.518c-3.357-3.357-3.357-8.393,0-11.751l25.18-25.18
		c3.357-3.357,8.393-3.357,11.751,0c3.357,3.357,3.357,8.393,0,11.751l-25.18,25.18C255,157.636,253.321,158.475,250.803,158.475z"
		/>
	<path d="M250.803,99.721c-5.036,0-8.393-3.357-8.393-8.393V75.38c0-5.036,3.357-8.393,8.393-8.393s8.393,3.357,8.393,8.393v15.948
		C259.197,95.525,255.839,99.721,250.803,99.721z"/>
	<path d="M192.049,158.475h-16.787c-5.036,0-8.393-3.357-8.393-8.393s3.357-8.393,8.393-8.393h16.787
		c5.036,0,8.393,3.357,8.393,8.393S197.085,158.475,192.049,158.475z"/>
	<path d="M326.344,158.475h-16.787c-5.036,0-8.393-3.357-8.393-8.393s3.357-8.393,8.393-8.393h16.787
		c5.036,0,8.393,3.357,8.393,8.393S331.38,158.475,326.344,158.475z"/>
	<path d="M40.967,368.311H7.393c-5.036,0-8.393-3.357-8.393-8.393c0-5.036,3.357-8.393,8.393-8.393h33.574
		c5.036,0,8.393,3.357,8.393,8.393C49.361,364.954,46.003,368.311,40.967,368.311z"/>
	<path d="M175.262,368.311h-67.148c-5.036,0-8.393-3.357-8.393-8.393c0-5.036,3.357-8.393,8.393-8.393h67.148
		c5.036,0,8.393,3.357,8.393,8.393C183.656,364.954,180.298,368.311,175.262,368.311z"/>
	<path d="M82.934,359.918c0-5.036-3.357-8.393-8.393-8.393c-5.036,0-8.393,3.357-8.393,8.393c0,5.036,3.357,8.393,8.393,8.393
		C79.577,368.311,82.934,364.954,82.934,359.918"/>
	<path d="M410.279,368.311h-83.934c-5.036,0-8.393-3.357-8.393-8.393c0-5.036,3.357-8.393,8.393-8.393h83.934
		c5.036,0,8.393,3.357,8.393,8.393C418.672,364.954,415.315,368.311,410.279,368.311z"/>
	<path d="M452.246,359.918c0-5.036-3.357-8.393-8.393-8.393c-5.036,0-8.393,3.357-8.393,8.393c0,5.036,3.357,8.393,8.393,8.393
		C448.888,368.311,452.246,364.954,452.246,359.918"/>
	<path d="M250.803,267.59c-64.63,0-117.508-52.879-117.508-117.508S186.174,32.574,250.803,32.574s117.508,52.879,117.508,117.508
		S315.433,267.59,250.803,267.59z M250.803,49.361c-55.397,0-100.721,45.325-100.721,100.721s45.325,100.721,100.721,100.721
		s100.721-45.325,100.721-100.721S306.2,49.361,250.803,49.361z"/>
	<path d="M494.213,368.311h-16.787c-5.036,0-8.393-3.357-8.393-8.393c0-5.036,3.357-8.393,8.393-8.393h16.787
		c5.036,0,8.393,3.357,8.393,8.393C502.607,364.954,499.249,368.311,494.213,368.311z"/>
	<path d="M275.984,317.951h-50.361c-5.036,0-8.393-3.357-8.393-8.393v-53.718c0-2.518,0.839-5.036,3.357-6.715
		c1.679-1.679,5.036-2.518,7.554-1.679c15.948,3.357,31.056,3.357,46.164,0c2.518-0.839,5.036,0,7.554,1.679
		c1.679,1.679,3.357,4.197,3.357,6.715v53.718C284.377,314.593,281.02,317.951,275.984,317.951z M234.016,301.164h33.574v-35.252
		c-11.751,1.679-21.823,1.679-33.574,0V301.164z"/>
</g>
</svg>