<?xml version="1.0" encoding="iso-8859-1"?>
<!-- Uploaded to: SVG Repo, www.svgrepo.com, Generator: SVG Repo Mixer Tools -->
<svg height="800px" width="800px" version="1.1" id="Layer_1" xmlns="http://www.w3.org/2000/svg" xmlns:xlink="http://www.w3.org/1999/xlink" 
	 viewBox="0 0 512 512" xml:space="preserve">
<path style="fill:#707287;" d="M202.912,477.536c-40.746-9.635-77.693-30.286-107.927-60.52
	C51.975,374.006,28.29,316.823,28.29,255.999c0-60.823,23.687-118.007,66.695-161.016c30.235-30.234,67.182-50.887,107.927-60.52
	V477.536z"/>
<path style="opacity:0.1;enable-background:new    ;" d="M176.51,441.097c-23.237-10.003-44.577-24.47-62.857-42.75
	C75.631,360.325,54.69,309.772,54.69,256s20.94-104.325,58.962-142.347c18.282-18.281,39.621-32.749,62.857-42.751V441.097z"/>
<path style="fill:#707287;" d="M309.088,477.536c40.746-9.635,77.693-30.286,107.927-60.52
	c43.009-43.009,66.695-100.192,66.695-161.017c0-60.823-23.687-118.007-66.695-161.016c-30.235-30.234-67.182-50.887-107.927-60.52
	V477.536z"/>
<path style="opacity:0.1;enable-background:new    ;" d="M335.489,441.097c23.237-10.003,44.577-24.47,62.857-42.75
	c38.022-38.023,58.962-88.576,58.962-142.348s-20.94-104.325-58.962-142.347c-18.282-18.281-39.621-32.749-62.857-42.751V441.097z"
	/>
<path style="fill:#707287;" d="M356.728,260.674L287.966,31.479l0,0l0,0c-10.446-1.474-21.114-2.254-31.966-2.254
	c-10.852,0-21.521,0.779-31.966,2.254l-68.763,229.195l68.763,219.846c10.446,1.474,21.114,2.254,31.966,2.254
	c10.852,0,21.521-0.779,31.966-2.254l0,0l0,0L356.728,260.674z"/>
<path style="fill:#C7CFE2;" d="M80.05,80.049c-10.975,10.975-20.782,22.804-29.394,35.321h36.148
	c10.755,0,19.473,8.718,19.473,19.473l0,0c0,10.755-8.718,19.473-19.473,19.473H28.756c-11.548,25.782-18.627,53.507-20.836,82.211
	h78.884c10.755,0,19.473,8.718,19.473,19.473l0,0c0,10.755-8.718,19.473-19.473,19.473H7.923
	c2.476,32.209,11.097,63.18,25.271,91.56h53.611c10.755,0,19.473,8.718,19.473,19.473l0,0c0,10.755-8.718,19.473-19.473,19.473
	H57.401c6.892,9.087,14.444,17.768,22.647,25.973c39.377,39.378,89.631,63.921,143.983,70.849V9.2
	C169.68,16.128,119.426,40.671,80.05,80.049z"/>
<g>
	<path style="fill:#E1EAFF;" d="M111.732,80.049c31.597-31.598,70.2-53.632,112.301-64.689V9.2
		C169.679,16.128,119.426,40.672,80.05,80.049c-10.975,10.975-20.782,22.804-29.394,35.321h31.682
		C90.949,102.852,100.756,91.024,111.732,80.049z"/>
	<path style="fill:#E1EAFF;" d="M86.804,405.978H57.401c6.892,9.087,14.444,17.768,22.647,25.973
		c39.377,39.378,89.631,63.921,143.983,70.849v-6.159c-42.102-11.058-80.705-33.093-112.301-64.69
		c-8.205-8.205-15.757-16.885-22.647-25.973H86.804z"/>
	<path style="fill:#E1EAFF;" d="M60.438,154.316H28.756c-11.548,25.782-18.627,53.507-20.836,82.211h31.682
		C41.812,207.822,48.89,180.097,60.438,154.316z"/>
	<path style="fill:#E1EAFF;" d="M39.605,275.472H7.923c2.476,32.209,11.097,63.18,25.271,91.56h31.682
		C50.702,338.652,42.082,307.682,39.605,275.472z"/>
</g>
<path style="fill:#C7CFE2;" d="M431.95,80.049c10.975,10.975,20.782,22.804,29.394,35.321h-36.148
	c-10.755,0-19.473,8.718-19.473,19.473l0,0c0,10.755,8.718,19.473,19.473,19.473h58.048c11.548,25.782,18.627,53.506,20.837,82.211
	h-78.884c-10.755,0-19.473,8.718-19.473,19.473l0,0c0,10.755,8.718,19.473,19.473,19.473h78.881
	c-2.476,32.209-11.097,63.18-25.271,91.56h-53.611c-10.755,0-19.473,8.718-19.473,19.473l0,0c0,10.755,8.718,19.473,19.473,19.473
	h29.403c-6.892,9.087-14.444,17.768-22.647,25.973c-39.377,39.378-89.631,63.921-143.983,70.849V9.2
	C342.319,16.128,392.573,40.671,431.95,80.049z"/>
<g>
	<path style="fill:#AFB6C7;" d="M400.268,80.049c-31.597-31.598-70.2-53.632-112.301-64.689V9.2
		c54.354,6.928,104.607,31.472,143.983,70.848c10.975,10.975,20.782,22.804,29.394,35.321h-31.682
		C421.05,102.852,411.242,91.024,400.268,80.049z"/>
	<path style="fill:#AFB6C7;" d="M425.195,405.978h29.403c-6.892,9.087-14.444,17.768-22.647,25.973
		c-39.377,39.378-89.631,63.921-143.983,70.849v-6.159c42.102-11.058,80.705-33.093,112.301-64.69
		c8.205-8.205,15.757-16.885,22.647-25.973H425.195z"/>
	<path style="fill:#AFB6C7;" d="M451.561,154.316h31.682c11.548,25.782,18.627,53.506,20.837,82.211h-31.682
		C470.188,207.822,463.109,180.097,451.561,154.316z"/>
	<path style="fill:#AFB6C7;" d="M472.394,275.472h31.682c-2.476,32.209-11.097,63.18-25.271,91.56h-31.682
		C461.298,338.652,469.917,307.682,472.394,275.472z"/>
</g>
<circle cx="256.001" cy="76.406" r="12.351"/>
<circle cx="256.001" cy="127.721" r="12.351"/>
<circle cx="256.001" cy="416.84" r="12.351"/>
<path d="M255.999,166.156c-6.821,0-12.351,5.53-12.351,12.351v38.817c0,6.821,5.53,12.351,12.351,12.351s12.351-5.53,12.351-12.351
	v-38.817C268.35,171.686,262.82,166.156,255.999,166.156z"/>
<path d="M504.076,267.55h-12.745c0.191-3.892,0.299-7.756,0.299-11.552c0-3.797-0.108-7.661-0.299-11.552c0,0,12.682,0,12.748,0
	c4.572,0,8.247-3.984,7.897-8.529c-2.272-29.511-9.507-58.056-21.506-84.84c-1.276-2.849-4.107-4.683-7.229-4.683h-18.551
	c-4.184-7.941-8.849-15.662-13.942-23.105c0,0,10.543,0,10.616,0c6.479,0,10.211-7.798,6.207-12.843
	c-8.873-12.841-18.971-24.951-30.02-36C396.938,33.834,345.559,8.555,288.967,1.342c-4.664-0.595-8.922,3.163-8.922,7.856v13.344
	c-8.013-0.82-16.068-1.239-24.047-1.239c-7.979,0-16.033,0.419-24.046,1.239c0,0,0-13.329,0-13.344c0-4.698-4.263-8.45-8.922-7.856
	C166.44,8.555,115.06,33.834,74.449,74.447C63.276,85.621,53.076,97.878,44.131,110.88c-3.549,5.16,0.284,12.41,6.525,12.41h10.594
	c-5.094,7.444-9.759,15.165-13.942,23.105H28.756c-3.122,0-5.952,1.833-7.229,4.683C9.53,177.864,2.294,206.408,0.023,235.917
	c-0.35,4.54,3.352,8.529,7.897,8.529h12.748c-0.379,7.701-0.379,15.404,0,23.105c0,0-12.725,0-12.745,0
	c-4.52,0-8.244,4.027-7.897,8.528c2.55,33.152,11.325,64.944,26.082,94.492c1.341,2.685,4.085,4.382,7.086,4.382h19.324
	c4.679,7.971,9.854,15.694,15.477,23.105c0,0-10.568,0-10.592,0c-6.425,0-10.195,7.585-6.311,12.707
	c41.479,54.697,103.797,91.206,171.942,99.892c0.334,0.043,0.668,0.064,1.001,0.064c4.318,0,7.921-3.61,7.921-7.921v-13.344
	c8.012,0.82,16.067,1.239,24.046,1.239c7.979,0,16.033-0.419,24.047-1.239c0,0,0,13.332,0,13.344c0,4.303,3.624,7.921,7.921,7.921
	c0.333,0,0.667-0.021,1.001-0.064c67.949-8.702,130.585-45.358,171.941-99.891c3.875-5.108,0.096-12.708-6.31-12.708h-10.592
	c5.623-7.411,10.797-15.133,15.477-23.105h19.325c3.001,0,5.745-1.696,7.085-4.382c14.757-29.548,23.532-61.339,26.082-94.49
	C512.325,271.509,508.656,267.55,504.076,267.55z M71.106,374.952h15.698c6.37,0,11.552,5.182,11.552,11.552
	c0,0.38-0.02,0.76-0.06,1.137c-0.558,5.293-4.797,9.676-10.091,10.321C82.002,390.654,76.283,382.955,71.106,374.952z
	 M216.112,493.638c-49.554-8.179-94.501-31.327-130.462-67.288c-4.001-4.001-7.88-8.162-11.61-12.452c0,0,12.713,0,12.765,0
	c35.271,0,35.419-54.787,0-54.787H57.089H38.146c-11.338-23.899-18.558-49.31-21.521-75.719h12.496c0,0,57.536,0,57.681,0
	c35.236,0,35.408-54.787,0-54.787H29.121H16.623c2.579-22.958,8.39-45.225,17.324-66.37h18.186c0,0,34.557,0,34.672,0
	c35.04,0,35.485-54.787,0-54.787H66.313c6.005-7.642,12.475-14.939,19.338-21.8c35.961-35.961,80.909-59.109,130.463-67.288v475.278
	H216.112z M36.21,255.999c0-3.792,0.103-7.656,0.308-11.552h50.286c6.37,0,11.552,5.182,11.552,11.552
	c0,6.37-5.182,11.552-11.552,11.552H36.519C36.313,263.656,36.21,259.791,36.21,255.999z M65.387,146.394
	c4.618-7.995,9.76-15.725,15.371-23.105c0,0,6.031,0,6.046,0c14.796,0,14.942,23.105,0,23.105H65.387z M280.046,473.53
	c-16.016,1.755-32.076,1.755-48.092,0V38.467c16.016-1.756,32.076-1.756,48.092,0V473.53z M423.794,397.962
	c-4.194-0.512-7.961-3.415-9.409-7.408c-2.698-7.445,2.814-15.602,10.81-15.602h15.698
	C435.717,382.955,429.998,390.653,423.794,397.962z M473.852,359.11H454.91h-29.716c-15.105,0-27.393,12.288-27.393,27.393
	s12.288,27.393,27.393,27.393h12.765c-3.73,4.29-7.61,8.45-11.61,12.452c-35.961,35.961-80.91,59.109-130.463,67.288V18.36
	c49.553,8.179,94.501,31.327,130.463,67.288c6.861,6.861,13.332,14.159,19.337,21.8c0,0-20.453,0-20.491,0
	c-32.92,0-36.501,49.978-3.796,54.525c1.257,0.175,38.467,0.262,38.467,0.262h18.184c8.933,21.144,14.744,43.411,17.324,66.37
	h-12.497c0,0-57.531,0-57.682,0c-35.239,0-35.404,54.787,0,54.787h57.682h12.496C492.412,309.801,485.191,335.212,473.852,359.11z
	 M446.612,146.394c0,0-21.389,0-21.418,0c-14.873,0-14.881-23.105,0-23.105h6.046C436.852,130.668,441.994,138.398,446.612,146.394z
	 M475.789,255.999c0,3.791-0.104,7.657-0.308,11.552c0,0-50.082,0-50.286,0c-14.919,0-14.936-23.105-0.001-23.105h50.286
	C475.686,248.343,475.789,252.207,475.789,255.999z"/>
</svg>