<?xml version="1.0" encoding="iso-8859-1"?>
<!-- Uploaded to: SVG Repo, www.svgrepo.com, Generator: SVG Repo Mixer Tools -->
<svg height="800px" width="800px" version="1.1" id="Layer_1" xmlns="http://www.w3.org/2000/svg" xmlns:xlink="http://www.w3.org/1999/xlink" 
	 viewBox="0 0 512 512" xml:space="preserve">
<path style="fill:#36D9D9;" d="M105.743,218.378c-2.875-3.889-7.351-6.549-12.554-6.802c-47.233-2.435-87.62,35.216-87.62,83.38
	c0,46.032,37.446,83.478,83.478,83.478c9.217,0,16.696-7.479,16.696-16.696V218.378z"/>
<path style="fill:#43BFBF;" d="M467.69,228.457c-25.092-15.862-42.351-19.024-52.716-15.894c-5.219,1.576-8.71,6.47-8.71,11.923
	v137.254c0,9.307,7.65,16.723,16.957,16.696c44.995-0.138,81.721-36.051,83.172-80.731
	C507.309,269.52,491.524,243.523,467.69,228.457z"/>
<path style="fill:#FFC033;" d="M256.003,0c-64.445,0-116.87,52.429-116.87,116.87c0,9.223,7.479,16.696,16.696,16.696h200.348
	c9.217,0,16.696-7.473,16.696-16.696C372.873,52.429,320.449,0,256.003,0z"/>
<path style="fill:#F9A926;" d="M356.177,133.565c9.217,0,16.696-7.473,16.696-16.696C372.873,52.429,320.449,0,256.003,0v133.565
	H356.177z"/>
<path style="fill:#FFDFB3;" d="M347.699,102.408H164.308c-56.717,32.745-91.956,93.723-91.956,159.157v100.174
	C72.351,444.597,139.754,512,222.612,512h66.783c82.858,0,150.261-67.403,150.261-150.261V261.565
	C439.656,196.13,404.417,135.152,347.699,102.408z"/>
<path style="fill:#FFCC99;" d="M347.699,102.408h-91.696V512h33.391c82.858,0,150.261-67.403,150.261-150.261V261.565
	C439.656,196.13,404.417,135.152,347.699,102.408z"/>
<path style="fill:#A6673A;" d="M422.96,133.565H89.047c-9.217,0-16.696-7.473-16.696-16.696s7.479-16.696,16.696-16.696H422.96
	c9.217,0,16.696,7.473,16.696,16.696S432.177,133.565,422.96,133.565z"/>
<path style="fill:#99522E;" d="M422.96,100.174H256.003v33.391H422.96c9.217,0,16.696-7.473,16.696-16.696
	S432.177,100.174,422.96,100.174z"/>
<path style="fill:#736056;" d="M350.612,203.424v-19.772c0-9.217-7.479-16.696-16.696-16.696c-9.217,0-16.696,7.479-16.696,16.696
	v19.772c-19.391,6.914-33.391,25.273-33.391,47.01c0,9.217,7.479,16.696,16.696,16.696c9.217,0,16.696-7.479,16.696-16.696
	c0-9.206,7.49-16.696,16.696-16.696c9.206,0,16.696,7.49,16.696,16.696c0,9.217,7.479,16.696,16.696,16.696
	c9.217,0,16.696-7.479,16.696-16.696C384.003,228.698,370.003,210.338,350.612,203.424z"/>
<path style="fill:#665247;" d="M350.612,250.435c0,9.217,7.479,16.696,16.696,16.696c9.217,0,16.696-7.479,16.696-16.696
	c0-21.737-14-40.096-33.391-47.01v-19.772c0-9.217-7.479-16.696-16.696-16.696v66.783
	C343.124,233.739,350.612,241.229,350.612,250.435z"/>
<path style="fill:#736056;" d="M205.916,203.424v-19.772c0-9.217-7.479-16.696-16.696-16.696c-9.217,0-16.696,7.479-16.696,16.696
	v19.772c-19.391,6.914-33.391,25.273-33.391,47.01c0,9.217,7.479,16.696,16.696,16.696s16.696-7.479,16.696-16.696
	c0-9.206,7.49-16.696,16.696-16.696c9.206,0,16.696,7.49,16.696,16.696c0,9.217,7.479,16.696,16.696,16.696
	s16.696-7.479,16.696-16.696C239.308,228.698,225.308,210.338,205.916,203.424z"/>
<path style="fill:#665247;" d="M205.916,250.435c0,9.217,7.479,16.696,16.696,16.696s16.696-7.479,16.696-16.696
	c0-21.737-14-40.096-33.391-47.01v-19.772c0-9.217-7.479-16.696-16.696-16.696v66.783
	C198.428,233.739,205.916,241.229,205.916,250.435z"/>
<path style="fill:#E6563A;" d="M256.003,378.435c-27.619,0-50.087-22.468-50.087-50.087s22.468-50.087,50.087-50.087
	s50.087,22.468,50.087,50.087S283.624,378.435,256.003,378.435z"/>
<path style="fill:#D9472B;" d="M306.09,328.348c0-27.619-22.468-50.087-50.087-50.087v100.174
	C283.624,378.435,306.09,355.967,306.09,328.348z"/>
<path style="fill:#E6563A;" d="M256.003,445.217c-64.445,0-116.87-52.424-116.87-116.87c0-9.217,7.479-16.696,16.696-16.696
	s16.696,7.479,16.696,16.696c0,46.032,37.446,83.478,83.478,83.478s83.478-37.446,83.478-83.478c0-9.217,7.479-16.696,16.696-16.696
	c9.217,0,16.696,7.479,16.696,16.696C372.873,392.793,320.449,445.217,256.003,445.217z"/>
<path style="fill:#D9472B;" d="M372.873,328.348c0-9.217-7.479-16.696-16.696-16.696c-9.217,0-16.696,7.479-16.696,16.696
	c0,46.032-37.446,83.478-83.478,83.478v33.391C320.449,445.217,372.873,392.793,372.873,328.348z"/>
</svg>