<?xml version="1.0" encoding="utf-8"?>
<!-- Uploaded to: SVG Repo, www.svgrepo.com, Generator: SVG Repo Mixer Tools -->
<svg width="800px" height="800px" viewBox="0 0 1024 1024" class="icon"  version="1.1" xmlns="http://www.w3.org/2000/svg"><path d="M170.666667 832h128v64H170.666667zM725.333333 832h128v64h-128z" fill="#455A64" /><path d="M853.333333 874.666667H170.666667c-46.933333 0-85.333333-38.4-85.333334-85.333334V234.666667c0-46.933333 38.4-85.333333 85.333334-85.333334h682.666666c46.933333 0 85.333333 38.4 85.333334 85.333334v554.666666c0 46.933333-38.4 85.333333-85.333334 85.333334z" fill="#78909C" /><path d="M853.333333 810.666667H170.666667c-12.8 0-21.333333-8.533333-21.333334-21.333334V234.666667c0-12.8 8.533333-21.333333 21.333334-21.333334h682.666666c12.8 0 21.333333 8.533333 21.333334 21.333334v554.666666c0 12.8-8.533333 21.333333-21.333334 21.333334z" fill="#90A4AE" /><path d="M618.666667 298.666667c-117.333333 0-213.333333 96-213.333334 213.333333s96 213.333333 213.333334 213.333333 213.333333-96 213.333333-213.333333-96-213.333333-213.333333-213.333333z m0 362.666666c-83.2 0-149.333333-66.133333-149.333334-149.333333s66.133333-149.333333 149.333334-149.333333 149.333333 66.133333 149.333333 149.333333-66.133333 149.333333-149.333333 149.333333z" fill="#37474F" /><path d="M753.066667 407.466667l8.533333-8.533334c8.533333-8.533333 8.533333-21.333333 0-29.866666s-21.333333-8.533333-29.866667 0l-8.533333 8.533333c10.666667 8.533333 21.333333 19.2 29.866667 29.866667zM484.266667 407.466667c8.533333-10.666667 19.2-21.333333 29.866666-29.866667l-8.533333-8.533333c-8.533333-8.533333-21.333333-8.533333-29.866667 0s-8.533333 21.333333 0 29.866666l8.533334 8.533334zM448 512c0-6.4 0-14.933333 2.133333-21.333333h-12.8c-12.8 0-21.333333 8.533333-21.333333 21.333333s8.533333 21.333333 21.333333 21.333333h12.8c-2.133333-6.4-2.133333-14.933333-2.133333-21.333333zM618.666667 341.333333c6.4 0 14.933333 0 21.333333 2.133334v-12.8c0-12.8-8.533333-21.333333-21.333333-21.333334s-21.333333 8.533333-21.333334 21.333334v12.8c6.4-2.133333 14.933333-2.133333 21.333334-2.133334zM753.066667 616.533333c-8.533333 10.666667-19.2 21.333333-29.866667 29.866667l8.533333 8.533333c4.266667 4.266667 10.666667 6.4 14.933334 6.4s10.666667-2.133333 14.933333-6.4c8.533333-8.533333 8.533333-21.333333 0-29.866666l-8.533333-8.533334zM484.266667 616.533333l-8.533334 8.533334c-8.533333 8.533333-8.533333 21.333333 0 29.866666 4.266667 4.266667 10.666667 6.4 14.933334 6.4s10.666667-2.133333 14.933333-6.4l8.533333-8.533333c-10.666667-8.533333-21.333333-19.2-29.866666-29.866667zM800 490.666667h-12.8c0 6.4 2.133333 14.933333 2.133333 21.333333s0 14.933333-2.133333 21.333333h12.8c12.8 0 21.333333-8.533333 21.333333-21.333333s-8.533333-21.333333-21.333333-21.333333zM618.666667 682.666667c-6.4 0-14.933333 0-21.333334-2.133334v12.8c0 12.8 8.533333 21.333333 21.333334 21.333334s21.333333-8.533333 21.333333-21.333334v-12.8c-6.4 2.133333-14.933333 2.133333-21.333333 2.133334z" fill="#B0BEC5" /><path d="M256 426.666667c-23.466667 0-42.666667 19.2-42.666667 42.666666v170.666667c0 23.466667 19.2 42.666667 42.666667 42.666667s42.666667-19.2 42.666667-42.666667v-170.666667c0-23.466667-19.2-42.666667-42.666667-42.666666z" fill="#455A64" /><path d="M256 384c-23.466667 0-42.666667 19.2-42.666667 42.666667v170.666666c0 23.466667 19.2 42.666667 42.666667 42.666667s42.666667-19.2 42.666667-42.666667v-170.666666c0-23.466667-19.2-42.666667-42.666667-42.666667z" fill="#CFD8DC" /></svg>