<?xml version="1.0" encoding="iso-8859-1"?>
<!-- Uploaded to: SVG Repo, www.svgrepo.com, Generator: SVG Repo Mixer Tools -->
<svg version="1.1" id="Layer_1" xmlns="http://www.w3.org/2000/svg" xmlns:xlink="http://www.w3.org/1999/xlink" 
	 viewBox="0 0 512 512" xml:space="preserve">
<rect x="77.192" y="256" style="fill:#EBE5DD;" width="248.163" height="248.163"/>
<g>
	<rect x="256" y="256" style="fill:#D9CCBC;" width="69.36" height="248.163"/>
	<rect x="186.64" y="7.837" style="fill:#D9CCBC;" width="248.163" height="248.163"/>
</g>
<rect x="186.64" y="7.837" style="fill:#EBE5DD;" width="69.36" height="248.163"/>
<rect x="208.98" y="154.216" style="fill:#D9CCBC;" width="15.673" height="15.673"/>
<g>
	<rect x="288.893" y="103.016" style="fill:#EBE5DD;" width="15.673" height="15.673"/>
	<rect x="374.356" y="163.255" style="fill:#EBE5DD;" width="15.673" height="15.673"/>
	<rect x="363.677" y="97.97" style="fill:#EBE5DD;" width="15.673" height="15.673"/>
</g>
<rect x="231.967" y="55.999" style="fill:#D9CCBC;" width="15.673" height="15.673"/>
<rect x="303.971" y="192.167" style="fill:#EBE5DD;" width="15.673" height="15.673"/>
<path d="M442.645,0H178.808v248.163H69.355V512h263.837V263.837h109.453V0z M317.518,496.327H85.029v-232.49h232.49V496.327z
	 M426.971,248.163h-232.49V15.673h232.49V248.163z"/>
<g>
	<rect x="132.932" y="402.38" style="fill:#D9CCBC;" width="15.673" height="15.673"/>
	<rect x="190.401" y="351.18" style="fill:#D9CCBC;" width="15.673" height="15.673"/>
</g>
<g>
	<rect x="275.853" y="411.418" style="fill:#EBE5DD;" width="15.673" height="15.673"/>
	<rect x="265.174" y="346.133" style="fill:#EBE5DD;" width="15.673" height="15.673"/>
</g>
<g>
	<rect x="155.92" y="304.159" style="fill:#D9CCBC;" width="15.673" height="15.673"/>
	<rect x="205.479" y="440.33" style="fill:#D9CCBC;" width="15.673" height="15.673"/>
</g>
</svg>