<?xml version="1.0" encoding="iso-8859-1"?>
<!-- Uploaded to: SVG Repo, www.svgrepo.com, Generator: SVG Repo Mixer Tools -->
<svg height="800px" width="800px" version="1.1" id="Layer_1" xmlns="http://www.w3.org/2000/svg" xmlns:xlink="http://www.w3.org/1999/xlink" 
	 viewBox="0 0 512 512" xml:space="preserve">
<path style="fill:#FDDD85;" d="M290.133,29.867H8.533C3.821,29.867,0,33.469,0,37.913v265.508c0,4.444,3.821,8.046,8.533,8.046
	L153.6,328.533l136.533-17.067c4.713,0,8.533-3.602,8.533-8.046V37.913C298.667,33.469,294.846,29.867,290.133,29.867z"/>
<path style="fill:#E5563C;" d="M469.333,311.467h-42.667V217.6c0-23.526-19.14-42.667-42.667-42.667h-76.8
	c-4.713,0-8.533,3.821-8.533,8.533v128H8.533C3.821,311.467,0,315.287,0,320v119.467C0,444.179,3.821,448,8.533,448h281.6h128
	h85.333c4.713,0,8.533-3.821,8.533-8.533v-85.333C512,330.607,492.86,311.467,469.333,311.467z"/>
<circle style="fill:#74757B;" cx="418.133" cy="422.4" r="59.733"/>
<circle style="fill:#AFB0B4;" cx="418.133" cy="422.4" r="34.133"/>
<circle style="fill:#D7D8D9;" cx="418.133" cy="422.4" r="25.6"/>
<circle style="fill:#74757B;" cx="93.867" cy="422.4" r="59.733"/>
<circle style="fill:#AFB0B4;" cx="93.867" cy="422.4" r="34.133"/>
<circle style="fill:#D7D8D9;" cx="93.867" cy="422.4" r="25.6"/>
<path style="fill:#B83C26;" d="M332.8,354.133h-17.067c-4.713,0-8.533-3.821-8.533-8.533c0-4.713,3.821-8.533,8.533-8.533H332.8
	c4.713,0,8.533,3.821,8.533,8.533C341.333,350.313,337.513,354.133,332.8,354.133z"/>
<path style="fill:#D7D8D9;" d="M384,192h-59.733c-4.713,0-8.533,3.821-8.533,8.533v85.333c0,4.713,3.821,8.533,8.533,8.533h76.8
	c4.713,0,8.533-3.821,8.533-8.533V217.6C409.6,203.484,398.115,192,384,192z"/>
<g>
	<path style="fill:#88898E;" d="M324.267,192c-4.713,0-8.533,3.821-8.533,8.533v43.378L367.645,192H324.267z"/>
	<path style="fill:#88898E;" d="M387.958,192.308l-72.225,72.225v21.333c0,4.713,3.821,8.533,8.533,8.533h7.822l77.493-77.493
		C409.248,204.448,399.977,194.182,387.958,192.308z"/>
	<path style="fill:#88898E;" d="M372.622,294.4h28.445c4.713,0,8.533-3.821,8.533-8.533v-28.445L372.622,294.4z"/>
</g>
<path style="fill:#FDD042;" d="M17.067,303.421V37.913c0-4.444,3.821-8.046,8.533-8.046H8.533C3.821,29.867,0,33.469,0,37.913
	v265.508c0,4.444,3.821,8.046,8.533,8.046H25.6C20.887,311.467,17.067,307.865,17.067,303.421z"/>
<path style="fill:#F2C127;" d="M204.8,29.867H102.4v119.21c0,6.574,7.138,11.046,12.924,7.574l38.276-22.965l38.276,22.965
	c5.777,3.466,12.924-0.983,12.924-7.546V29.867z"/>
<path style="fill:#E1A527;" d="M119.467,149.076V29.867H102.4v119.21c0,6.574,7.138,11.046,12.924,7.574l5.318-3.19
	C119.903,152.183,119.467,150.694,119.467,149.076z"/>
<g>
	<path style="fill:#606268;" d="M42.667,302.933c-4.713,0-8.533-3.821-8.533-8.533v-25.6c0-4.713,3.821-8.533,8.533-8.533
		s8.533,3.821,8.533,8.533v25.6C51.2,299.113,47.379,302.933,42.667,302.933z"/>
	<path style="fill:#606268;" d="M68.267,302.933c-4.713,0-8.533-3.821-8.533-8.533v-25.6c0-4.713,3.821-8.533,8.533-8.533
		s8.533,3.821,8.533,8.533v25.6C76.8,299.113,72.979,302.933,68.267,302.933z"/>
	<path style="fill:#606268;" d="M230.4,302.933c-4.713,0-8.533-3.821-8.533-8.533v-25.6c0-4.713,3.821-8.533,8.533-8.533
		c4.713,0,8.533,3.821,8.533,8.533v25.6C238.933,299.113,235.113,302.933,230.4,302.933z"/>
	<path style="fill:#606268;" d="M256,302.933c-4.713,0-8.533-3.821-8.533-8.533v-25.6c0-4.713,3.821-8.533,8.533-8.533
		c4.713,0,8.533,3.821,8.533,8.533v25.6C264.533,299.113,260.713,302.933,256,302.933z"/>
	<path style="fill:#606268;" d="M110.933,302.933c-4.713,0-8.533-3.821-8.533-8.533v-25.6c0-4.713,3.821-8.533,8.533-8.533
		s8.533,3.821,8.533,8.533v25.6C119.467,299.113,115.646,302.933,110.933,302.933z"/>
	<path style="fill:#606268;" d="M136.533,302.933c-4.713,0-8.533-3.821-8.533-8.533v-25.6c0-4.713,3.821-8.533,8.533-8.533
		s8.533,3.821,8.533,8.533v25.6C145.067,299.113,141.246,302.933,136.533,302.933z"/>
	<path style="fill:#606268;" d="M162.133,302.933c-4.713,0-8.533-3.821-8.533-8.533v-25.6c0-4.713,3.821-8.533,8.533-8.533
		c4.713,0,8.533,3.821,8.533,8.533v25.6C170.667,299.113,166.846,302.933,162.133,302.933z"/>
	<path style="fill:#606268;" d="M187.733,302.933c-4.713,0-8.533-3.821-8.533-8.533v-25.6c0-4.713,3.821-8.533,8.533-8.533
		c4.713,0,8.533,3.821,8.533,8.533v25.6C196.267,299.113,192.446,302.933,187.733,302.933z"/>
</g>
<path style="fill:#EBEBEC;" d="M247.467,174.933H59.733c-4.713,0-8.533,3.821-8.533,8.533V217.6c0,4.713,3.821,8.533,8.533,8.533
	h187.733c4.713,0,8.533-3.821,8.533-8.533v-34.133C256,178.754,252.179,174.933,247.467,174.933z"/>
<path style="fill:#D7D8D9;" d="M68.267,217.6v-34.133c0-4.713,3.821-8.533,8.533-8.533H59.733c-4.713,0-8.533,3.821-8.533,8.533
	V217.6c0,4.713,3.821,8.533,8.533,8.533H76.8C72.087,226.133,68.267,222.313,68.267,217.6z"/>
</svg>